 <svg  version="1.0" xmlns="http://www.w3.org/2000/svg"  width="300.000000pt" height="300.000000pt" viewBox="0 0 300.000000 300.000000"  preserveAspectRatio="xMidYMid meet">  <g transform="translate(0.000000,300.000000) scale(0.050000,-0.050000)" fill="#e51f1f" stroke="none"> <path d="M1545 4978 c-58 -34 -105 -66 -105 -72 0 -9 217 -386 234 -405 12 -14 189 86 200 113 7 18 -206 428 -221 426 -2 -1 -50 -28 -108 -62z"/> <path d="M4453 4963 c-81 -128 -198 -345 -190 -351 53 -44 204 -113 217 -100 31 33 220 371 220 395 0 12 -46 47 -101 76 l-101 54 -45 -74z"/> <path d="M2670 4664 l-140 -35 -14 -89 c-7 -50 -14 -226 -15 -391 l-1 -302 75 -88 c41 -49 83 -96 95 -104 11 -8 183 -15 382 -15 l362 0 105 111 c98 103 105 117 94 185 -7 41 -13 210 -13 376 l0 302 -115 35 c-173 52 -632 61 -815 15z"/> <path d="M1021 4511 c-82 -118 -87 -107 137 -257 l198 -132 57 84 c31 46 64 93 71 106 12 18 -356 288 -393 288 -5 0 -37 -40 -70 -89z"/> <path d="M4855 4470 c-226 -151 -213 -125 -129 -250 l67 -98 198 132 c110 72 202 135 207 138 10 9 -119 208 -135 208 -7 0 -101 -59 -208 -130z"/> <path d="M2103 4425 c-115 -68 -454 -360 -438 -377 10 -9 560 -90 565 -83 13 16 26 535 14 535 -8 0 -72 -34 -141 -75z"/> <path d="M3847 4428 c7 -43 13 -167 13 -276 l0 -198 125 12 c216 21 435 58 435 74 0 32 -255 266 -382 351 -195 130 -207 133 -191 37z"/> <path d="M1246 3920 c-77 -31 -75 -22 -285 -1162 -78 -426 -86 -347 99 -1026 155 -569 160 -593 160 -809 l0 -223 290 0 290 0 1 265 c0 153 12 320 29 395 51 232 42 1359 -11 1427 -56 70 -172 74 -235 7 -40 -43 -43 -69 -49 -405 l-5 -359 -125 -6 -125 -6 0 356 c0 421 14 486 132 604 l88 87 0 367 c0 477 -49 570 -254 488z"/> <path d="M4689 3921 c-92 -38 -99 -66 -105 -471 l-7 -383 74 -56 c132 -101 148 -168 149 -606 l0 -385 -119 0 -119 0 -6 368 c-5 329 -10 372 -44 410 -49 54 -170 56 -235 4 l-47 -38 -6 -594 c-5 -477 0 -623 25 -744 20 -95 31 -255 31 -438 l0 -288 290 0 290 0 0 205 c0 195 9 236 171 833 l170 629 -109 591 c-61 326 -122 655 -135 732 -37 206 -131 287 -268 231z"/> <path d="M1760 3433 l0 -328 90 -34 c101 -39 221 -165 241 -253 13 -64 22 -67 97 -39 44 17 64 63 163 370 l112 351 -85 100 c-46 55 -90 100 -96 100 -7 1 -102 14 -212 30 -110 16 -225 29 -255 29 l-55 1 0 -327z"/> <path d="M4055 3722 c-241 -35 -415 -134 -415 -238 0 -22 197 -660 210 -679 36 -55 129 -20 169 64 51 104 144 184 249 213 l72 20 0 329 c0 251 -6 328 -25 327 -14 -2 -131 -18 -260 -36z"/> <path d="M2689 3375 c-5 -14 -53 -163 -107 -331 l-98 -307 183 -134 c311 -229 360 -263 379 -263 15 0 479 328 542 383 11 9 -25 151 -88 346 l-108 331 -346 0 c-259 0 -350 -6 -357 -25z"/> <path d="M2186 2515 l-63 -20 -9 -542 c-5 -299 -15 -567 -23 -595 -13 -49 -5 -58 101 -119 l115 -66 306 319 305 318 0 150 0 150 -298 215 c-303 218 -321 227 -434 190z"/> <path d="M3475 2328 l-295 -215 0 -149 c0 -172 -24 -136 362 -541 l236 -247 105 57 105 57 -6 610 c-3 336 -9 614 -13 618 -73 73 -201 23 -494 -190z"/> <path d="M2813 1335 c-264 -279 -266 -259 37 -295 193 -23 341 -17 546 23 130 25 139 4 -129 285 l-223 233 -231 -246z"/> </g> </svg> 