 <svg  version="1.0" xmlns="http://www.w3.org/2000/svg"  width="639.000000pt" height="645.000000pt" viewBox="0 0 639.000000 645.000000"  preserveAspectRatio="xMidYMid meet">  <g transform="translate(0.000000,645.000000) scale(0.100000,-0.100000)" fill="#e5c618" stroke="none"> <path d="M4875 6059 c-11 -6 -27 -25 -36 -42 -49 -95 -62 -117 -70 -117 -5 0 -9 -5 -9 -11 0 -21 -222 -335 -296 -419 -12 -14 -45 -52 -74 -85 -28 -33 -133 -141 -234 -240 -170 -167 -255 -260 -265 -288 -2 -7 -14 -26 -27 -42 -12 -17 -27 -41 -33 -55 -6 -14 -15 -32 -20 -40 -28 -47 -69 -158 -76 -206 l-6 -41 128 -6 c70 -4 160 -7 199 -7 39 0 93 -6 120 -14 45 -12 140 -29 322 -55 99 -15 251 -14 282 2 14 7 38 38 55 69 62 117 78 143 129 222 116 177 307 382 487 521 65 51 203 146 229 158 8 4 29 16 45 27 17 11 40 24 53 30 28 12 28 19 -3 64 -14 20 -25 39 -25 42 0 14 -162 218 -219 275 -64 65 -190 159 -212 159 -6 0 -23 6 -37 14 -57 29 -104 46 -128 46 -14 0 -37 6 -52 14 -15 7 -61 16 -102 20 -41 4 -82 9 -90 11 -8 2 -24 -1 -35 -6z m61 -132 c6 -17 -57 -118 -71 -113 -17 5 -17 33 0 49 8 9 15 19 15 24 0 14 30 53 41 53 5 0 12 -6 15 -13z m-146 -236 c0 -28 -63 -121 -79 -118 -22 3 -24 24 -4 45 23 24 42 53 49 75 8 23 34 22 34 -2z m-170 -244 c0 -13 -26 -51 -65 -95 -20 -23 -55 -30 -55 -11 0 6 6 16 13 23 6 7 28 32 47 54 35 42 60 54 60 29z m-190 -217 c0 -6 -24 -33 -52 -60 -53 -49 -88 -64 -88 -35 0 8 3 15 8 15 4 0 27 20 52 45 42 41 80 58 80 35z m-230 -212 c0 -16 -91 -108 -107 -108 -27 0 -20 20 25 69 44 48 82 66 82 39z m-206 -250 c-11 -18 -22 -35 -26 -38 -4 -3 -11 -18 -17 -33 -10 -26 -41 -38 -41 -16 0 21 45 104 65 121 29 24 40 5 19 -34z"/> <path d="M3701 4312 c-9 -6 -14 -31 -15 -68 l-1 -59 155 -12 c85 -6 193 -12 239 -12 46 -1 109 -7 140 -15 31 -8 145 -20 253 -27 208 -13 228 -10 228 30 0 10 6 26 14 36 24 33 9 45 -58 45 -77 0 -240 18 -330 36 -38 8 -81 14 -96 14 -15 0 -43 7 -62 15 -43 17 -445 32 -467 17z"/> <path d="M3672 4007 c-8 -9 -15 -53 -18 -109 -5 -96 -24 -228 -50 -335 -7 -34 -14 -78 -14 -98 0 -20 -7 -49 -15 -64 -8 -16 -15 -53 -17 -82 l-3 -54 70 -3 c61 -3 78 0 130 26 33 16 80 39 105 50 25 11 86 39 135 62 50 22 104 47 120 54 17 8 60 28 97 45 37 17 72 31 77 31 5 0 14 7 21 15 7 8 19 15 26 15 13 0 130 51 164 71 8 5 22 12 30 15 71 27 73 29 87 90 20 91 33 208 25 216 -5 5 -87 13 -183 19 -96 5 -201 16 -234 24 -37 9 -154 17 -301 21 -211 6 -241 5 -252 -9z"/> <path d="M1195 3806 c-44 -7 -90 -17 -102 -24 -12 -7 -31 -12 -43 -12 -19 0 -100 -36 -100 -44 0 -2 35 -20 78 -41 42 -20 88 -43 103 -50 14 -8 48 -17 75 -20 l51 -7 69 59 c84 73 136 131 129 144 -8 12 -160 9 -260 -5z"/> <path d="M1549 3677 c-53 -56 -121 -120 -152 -142 l-56 -40 -1 -110 c0 -114 12 -155 45 -155 14 0 74 -23 105 -41 8 -4 38 -20 65 -34 56 -29 72 -39 132 -78 24 -15 53 -27 65 -27 26 0 128 36 143 51 5 5 18 9 30 9 11 0 35 9 53 20 28 18 32 25 32 65 0 49 14 153 36 259 23 111 20 126 -28 161 -47 34 -125 82 -148 91 -8 3 -28 11 -45 18 -67 30 -112 45 -145 50 -34 5 -39 1 -131 -97z"/> <path d="M731 3610 c-100 -71 -248 -231 -265 -287 -5 -16 1 -35 22 -65 46 -69 132 -243 132 -271 0 -7 9 -23 20 -37 17 -22 30 -26 125 -35 88 -9 110 -8 127 3 11 8 85 78 164 156 l144 141 -8 119 c-5 90 -11 121 -22 127 -8 4 -51 21 -95 39 -44 18 -87 36 -95 41 -8 5 -28 15 -45 23 -16 7 -54 30 -84 50 -29 20 -56 36 -60 35 -3 0 -30 -18 -60 -39z"/> <path d="M4651 3530 c-55 -13 -67 -31 -52 -82 7 -24 20 -60 29 -82 23 -55 23 -417 0 -473 -9 -21 -23 -65 -32 -98 -10 -33 -23 -73 -30 -90 -29 -65 -82 -171 -106 -210 -42 -68 -48 -78 -85 -155 -58 -121 -63 -132 -80 -195 -9 -33 -21 -73 -27 -90 -17 -45 -22 -145 -8 -145 10 0 70 43 110 80 9 8 27 24 41 35 203 172 424 390 522 516 37 48 67 89 67 92 0 3 13 25 29 49 43 64 47 98 20 176 -13 37 -29 74 -36 83 -7 8 -13 23 -13 31 0 13 -21 69 -75 193 -7 17 -20 50 -30 75 -10 25 -23 59 -30 75 -7 17 -21 50 -30 75 -29 74 -49 110 -70 124 -28 18 -74 24 -114 16z"/> <path d="M2186 3418 c-9 -28 -20 -147 -20 -217 l-1 -74 78 -53 c43 -30 84 -54 90 -54 7 0 21 -7 31 -15 25 -19 66 -19 66 -1 0 23 -46 156 -58 168 -7 7 -12 18 -12 25 0 26 -93 176 -131 212 -26 24 -38 26 -43 9z"/> <path d="M4383 3416 c-18 -6 -35 -15 -39 -19 -4 -4 -6 -98 -5 -208 2 -154 -1 -211 -12 -247 -8 -26 -22 -70 -31 -98 -9 -29 -16 -58 -16 -67 0 -8 -7 -20 -15 -27 -8 -7 -15 -21 -15 -30 0 -24 -50 -119 -127 -245 -22 -36 -83 -166 -83 -176 0 -6 -6 -23 -14 -37 -20 -37 -46 -121 -46 -148 0 -12 -7 -37 -14 -56 -18 -42 -32 -356 -18 -377 8 -10 23 -2 75 38 l65 51 7 123 c3 67 12 142 20 167 8 25 21 74 31 110 9 36 23 75 31 87 7 12 13 29 13 36 0 8 14 39 30 70 17 31 30 61 30 66 0 6 12 27 26 48 14 21 30 47 35 58 5 11 19 36 30 55 44 73 91 176 109 235 6 22 16 54 22 70 29 85 33 398 6 450 -7 11 -14 34 -18 50 -7 34 -27 40 -77 21z"/> <path d="M4110 3290 c-30 -16 -62 -29 -70 -30 -9 0 -21 -5 -28 -12 -6 -6 -35 -22 -64 -34 -73 -31 -77 -40 -37 -99 18 -26 36 -69 40 -94 11 -67 -1 -167 -28 -241 -14 -36 -28 -76 -33 -90 -4 -14 -20 -49 -34 -77 -14 -29 -26 -57 -26 -62 0 -5 -4 -11 -8 -13 -4 -1 -20 -25 -36 -52 -28 -48 -162 -189 -226 -236 -44 -33 -121 -74 -187 -101 -13 -5 -23 -15 -23 -23 0 -9 10 -21 23 -27 38 -20 67 -52 67 -75 0 -30 -57 -77 -84 -70 -12 4 -41 9 -66 12 -25 3 -61 11 -80 18 -48 18 -164 46 -189 46 -13 0 -26 -9 -31 -22 -6 -13 -14 -30 -19 -38 -5 -8 -17 -35 -26 -60 -9 -25 -21 -53 -26 -63 -8 -14 -2 -20 33 -36 64 -28 108 -42 153 -50 79 -14 113 -55 97 -116 -9 -33 -37 -44 -92 -38 -39 5 -118 28 -168 49 -49 21 -91 18 -113 -8 -10 -13 -18 -26 -19 -31 0 -4 -11 -30 -25 -59 -14 -28 -23 -54 -20 -57 10 -9 80 -33 122 -40 23 -4 48 -12 55 -18 7 -6 30 -13 50 -17 37 -7 88 -53 88 -80 0 -7 -10 -25 -23 -39 -18 -22 -31 -27 -69 -27 -26 0 -59 6 -75 14 -15 8 -48 19 -73 26 -25 6 -61 16 -80 21 -72 22 -81 18 -117 -41 -18 -30 -37 -66 -43 -80 -6 -14 -22 -39 -36 -57 -13 -17 -24 -35 -24 -38 0 -3 -11 -21 -25 -39 -37 -48 -31 -80 23 -139 23 -24 32 -27 95 -27 38 0 81 6 95 13 15 8 88 44 162 82 74 37 162 83 195 101 33 18 69 38 80 44 21 11 34 18 103 63 24 15 45 27 49 27 3 0 25 14 50 30 24 17 46 30 48 30 2 0 24 14 48 30 25 17 48 30 51 30 4 0 12 5 19 10 7 6 62 43 122 82 61 40 117 79 125 87 12 12 15 54 16 242 1 175 5 239 17 276 8 26 23 82 32 123 10 41 24 85 31 97 8 12 14 29 14 38 0 14 49 127 71 165 13 22 54 94 99 175 22 39 40 76 40 84 0 8 6 22 13 30 7 9 21 43 31 76 9 33 24 80 32 105 17 54 16 352 -1 356 -5 1 -35 -11 -65 -26z"/> <path d="M356 3128 c-2 -7 -10 -38 -19 -68 -41 -143 -47 -180 -47 -293 0 -64 4 -118 9 -121 22 -14 201 192 201 231 0 12 -7 39 -16 60 -9 21 -24 54 -32 73 -8 19 -19 42 -23 50 -5 8 -14 26 -20 40 -15 37 -46 53 -53 28z"/> <path d="M3363 3114 c-26 -6 -73 -65 -73 -93 0 -11 -6 -35 -14 -53 -19 -45 -46 -140 -46 -164 0 -10 -7 -28 -15 -38 -8 -11 -15 -32 -15 -48 0 -15 -6 -45 -14 -65 -7 -21 -21 -65 -31 -98 -9 -33 -21 -73 -27 -90 -15 -47 -40 -136 -48 -175 -4 -19 -11 -43 -15 -52 -12 -29 16 -25 175 19 30 9 62 19 70 24 8 4 42 21 75 37 113 54 262 203 314 314 13 27 27 50 32 54 5 3 9 14 9 24 0 10 6 31 14 47 37 73 48 115 49 188 2 74 1 78 -28 101 -16 13 -41 27 -55 30 -14 3 -36 11 -50 19 -25 13 -264 28 -307 19z"/> <path d="M1153 2958 c-84 -84 -153 -157 -153 -162 0 -17 57 -135 99 -206 11 -19 24 -42 28 -50 9 -19 55 -83 68 -93 15 -13 200 2 286 23 89 21 129 44 129 74 0 11 7 30 15 40 8 11 15 35 15 53 0 19 7 65 16 102 8 38 14 93 12 122 -3 51 -4 53 -58 90 -79 54 -216 128 -241 128 -9 1 -22 8 -29 16 -7 8 -17 15 -23 15 -6 0 -79 -68 -164 -152z"/> <path d="M2050 2997 c-14 -5 -39 -16 -57 -23 -17 -8 -40 -14 -51 -14 -11 0 -25 -7 -32 -15 -7 -8 -20 -15 -29 -15 -35 0 -61 -30 -61 -68 0 -48 -28 -238 -42 -277 -5 -16 -14 -50 -20 -74 l-10 -43 103 -105 104 -104 50 7 c28 3 61 12 75 19 25 12 167 33 245 37 69 3 71 5 108 123 17 55 30 173 31 279 l1 70 -50 24 c-27 13 -66 31 -85 40 -19 8 -42 19 -50 23 -8 5 -24 13 -35 18 -11 5 -37 21 -58 35 -21 14 -40 26 -43 26 -3 0 -20 11 -37 24 -26 19 -36 22 -57 13z"/> <path d="M577 2713 c-67 -84 -125 -144 -200 -207 -48 -40 -57 -53 -52 -70 4 -12 12 -40 19 -63 7 -24 17 -48 24 -55 7 -7 12 -19 12 -27 0 -23 88 -174 130 -222 l38 -44 30 18 c17 9 47 17 69 17 21 1 65 7 98 15 33 8 92 15 131 15 41 0 76 5 85 13 9 6 24 39 34 72 11 33 25 67 32 76 7 8 13 23 13 32 0 9 5 28 12 42 12 26 4 49 -34 110 -56 86 -128 222 -128 242 0 6 -9 27 -20 46 -20 34 -24 35 -93 41 -40 4 -88 9 -109 12 -35 5 -38 3 -91 -63z"/> <path d="M5115 2540 c-70 -135 -487 -545 -799 -785 -43 -33 -84 -66 -91 -72 -7 -7 -40 -32 -74 -55 -33 -24 -97 -70 -143 -103 -46 -33 -91 -63 -100 -67 -10 -4 -18 -12 -18 -18 0 -5 -5 -10 -11 -10 -6 0 -21 -8 -34 -17 -36 -28 -286 -193 -291 -193 -2 0 -23 -13 -47 -30 -25 -16 -47 -30 -51 -30 -3 0 -22 -12 -43 -26 -21 -14 -47 -30 -58 -35 -11 -5 -42 -23 -70 -40 -27 -16 -63 -37 -80 -45 -16 -8 -52 -28 -80 -44 -27 -17 -77 -44 -110 -60 -33 -17 -68 -35 -77 -40 -43 -24 -56 -31 -97 -50 -24 -11 -51 -20 -61 -20 -9 0 -27 -11 -39 -24 -19 -21 -20 -24 -6 -30 38 -14 152 5 205 34 8 5 49 25 90 45 41 20 91 45 110 55 19 10 73 38 120 62 47 24 87 45 90 49 3 3 28 17 55 31 28 14 66 35 85 47 19 11 44 25 55 30 11 5 36 20 55 33 19 13 42 27 50 31 8 4 29 16 45 27 17 11 36 23 44 26 67 33 610 420 662 473 8 9 33 30 55 48 21 17 55 44 74 60 79 63 103 86 290 273 186 185 272 283 334 376 35 53 34 117 -1 122 -16 2 -26 -5 -38 -28z"/> <path d="M1585 2347 c-29 -19 -132 -39 -264 -51 l-115 -11 -22 -45 c-12 -25 -29 -65 -38 -90 -10 -25 -24 -58 -32 -73 -19 -39 -19 -38 29 -109 37 -56 76 -122 98 -168 20 -43 40 -89 53 -122 l15 -38 92 0 c98 0 246 23 292 46 16 8 37 14 47 14 38 0 50 27 50 112 0 74 17 170 42 243 30 86 30 87 -85 201 -58 57 -114 104 -124 104 -10 0 -27 -6 -38 -13z"/> <path d="M2170 2155 c-36 -7 -76 -17 -90 -23 -14 -6 -36 -13 -50 -16 -28 -6 -37 -25 -70 -147 -22 -82 -26 -144 -9 -154 28 -18 200 131 297 256 80 103 71 112 -78 84z"/> <path d="M736 1926 c-55 -13 -68 -30 -40 -52 92 -71 283 -174 322 -174 10 0 27 -7 38 -15 29 -22 74 -20 74 4 0 10 -7 24 -15 31 -8 7 -15 21 -15 31 0 10 -5 21 -11 24 -5 4 -14 17 -20 28 -12 28 -28 53 -62 99 l-29 38 -96 -1 c-54 -1 -119 -7 -146 -13z"/> </g> </svg> 