<?xml version="1.0" standalone="no"?>
<!DOCTYPE svg PUBLIC "-//W3C//DTD SVG 20010904//EN"
 "http://www.w3.org/TR/2001/REC-SVG-20010904/DTD/svg10.dtd">
<svg version="1.0" xmlns="http://www.w3.org/2000/svg"
 width="900.000000pt" height="939.000000pt" viewBox="0 0 900.000000 939.000000"
 preserveAspectRatio="xMidYMid meet">
<metadata>
Created by potrace 1.10, written by Peter Selinger 2001-2011
</metadata>
<g transform="translate(0.000000,939.000000) scale(0.100000,-0.100000)"
fill="#000000" stroke="none">
<path d="M4380 8649 c-230 -12 -424 -33 -540 -61 -25 -5 -70 -14 -100 -18 -30
-5 -75 -14 -100 -20 -173 -45 -242 -64 -291 -81 -31 -10 -62 -19 -69 -19 -6 0
-26 -6 -43 -14 -18 -7 -70 -28 -117 -46 -163 -61 -383 -164 -520 -242 -29 -16
-107 -64 -239 -143 -184 -111 -525 -400 -721 -610 -41 -44 -77 -82 -80 -85
-12 -10 -157 -187 -202 -245 -193 -255 -391 -607 -508 -905 -29 -74 -57 -146
-63 -160 -12 -27 -17 -45 -70 -225 -33 -114 -64 -245 -86 -365 -5 -30 -15 -80
-21 -110 -7 -30 -16 -107 -20 -170 -5 -63 -13 -144 -19 -180 -14 -84 -14 -446
0 -530 6 -36 14 -117 19 -180 4 -63 13 -140 20 -170 6 -30 16 -80 21 -110 22
-120 53 -251 86 -365 53 -180 58 -198 70 -225 6 -14 34 -86 63 -160 118 -300
309 -640 509 -905 44 -59 189 -235 201 -245 3 -3 41 -42 83 -88 188 -202 543
-503 718 -607 9 -5 59 -35 110 -66 145 -88 156 -93 294 -162 130 -64 232 -110
313 -141 93 -35 128 -49 159 -62 17 -8 37 -14 43 -14 7 0 38 -9 69 -19 31 -11
99 -31 151 -44 52 -13 115 -30 140 -36 25 -7 70 -16 100 -21 30 -4 75 -13 100
-18 354 -83 1026 -81 1397 4 34 8 74 14 89 14 14 0 47 7 73 15 25 8 82 23 126
35 44 11 112 29 150 40 39 11 87 25 108 30 21 6 45 15 55 20 9 5 45 19 80 31
34 12 65 26 68 30 3 5 13 9 23 9 9 0 35 8 57 19 21 10 72 33 113 51 91 39 216
105 361 188 59 34 226 145 320 212 297 212 613 524 843 832 79 106 237 341
237 352 0 3 19 36 41 73 40 65 178 345 212 428 76 190 177 503 197 612 5 27
13 66 19 88 72 291 106 817 73 1150 -18 178 -42 354 -53 383 -5 13 -9 37 -9
54 0 17 -6 54 -14 82 -8 28 -24 87 -36 131 -59 220 -103 359 -147 465 -6 14
-19 45 -29 70 -32 81 -163 350 -198 408 -19 31 -47 80 -63 107 -83 145 -265
399 -390 544 -139 162 -360 376 -528 513 -131 106 -357 262 -490 339 -33 19
-69 39 -80 46 -34 20 -303 153 -309 153 -3 0 -29 11 -58 24 -29 13 -91 39
-138 56 -47 18 -99 39 -117 46 -17 8 -37 14 -43 14 -7 0 -38 9 -69 19 -90 31
-236 71 -257 71 -10 0 -39 6 -64 14 -25 8 -90 22 -145 31 -55 9 -120 21 -145
26 -25 4 -76 11 -115 14 -38 3 -115 10 -170 15 -141 13 -289 16 -435 9z m1430
-874 c7 -8 19 -15 27 -15 14 0 302 -145 355 -178 15 -9 60 -37 100 -61 117
-71 262 -178 429 -318 102 -86 379 -369 379 -389 0 -7 -6 -28 -14 -46 -8 -18
-35 -100 -61 -183 -27 -82 -53 -163 -60 -180 -7 -16 -34 -97 -60 -180 -26 -82
-66 -202 -87 -265 -22 -63 -43 -128 -48 -145 -21 -76 -53 -154 -68 -167 -9 -7
-64 -29 -122 -47 -58 -19 -121 -40 -140 -47 -19 -7 -102 -34 -185 -60 -82 -25
-202 -64 -265 -86 -63 -22 -128 -43 -145 -48 -16 -4 -57 -17 -90 -28 -33 -11
-74 -23 -91 -26 -33 -7 -22 -14 -404 264 -87 63 -218 158 -291 210 -73 52
-150 111 -171 131 l-38 37 0 551 0 552 28 26 c26 25 283 215 367 271 22 15
104 74 182 132 78 58 186 137 240 175 53 39 114 85 136 103 42 35 77 41 97 17z
m-2484 -6 c6 -11 167 -131 400 -300 368 -267 540 -394 552 -408 9 -12 12 -137
10 -575 l-3 -561 -102 -75 c-56 -41 -158 -115 -228 -165 -110 -78 -169 -120
-365 -261 -19 -14 -66 -47 -104 -75 -38 -27 -74 -49 -80 -49 -7 0 -45 12 -86
26 -41 14 -91 29 -110 33 -19 4 -44 12 -55 18 -11 6 -51 21 -90 33 -38 12 -81
26 -95 31 -14 4 -90 29 -170 54 -80 25 -158 50 -175 56 -101 35 -242 79 -252
79 -17 0 -50 46 -63 88 -51 168 -75 242 -86 270 -8 18 -14 39 -14 47 0 8 -6
29 -14 47 -14 33 -34 96 -121 373 -25 83 -53 165 -61 183 -8 18 -14 38 -14 45
0 7 -11 40 -24 73 l-23 61 70 79 c221 250 487 471 770 640 85 50 201 114 237
130 91 41 206 95 220 103 21 13 67 13 76 0z m-951 -2631 c55 -19 141 -48 190
-63 50 -15 135 -43 190 -62 55 -19 114 -38 130 -43 17 -4 85 -27 152 -49 67
-23 127 -41 133 -41 7 0 27 -7 45 -16 39 -18 45 -31 115 -254 28 -91 58 -181
65 -200 8 -19 21 -60 30 -90 9 -30 20 -64 25 -75 4 -11 20 -60 35 -110 15 -49
43 -135 62 -190 56 -161 71 -118 -127 -385 -23 -30 -81 -111 -130 -180 -49
-69 -108 -150 -130 -180 -23 -30 -72 -98 -109 -150 -38 -52 -79 -107 -92 -123
l-24 -27 -595 0 c-327 0 -602 0 -612 0 -41 0 -236 375 -333 640 -15 41 -33 91
-40 110 -51 140 -111 421 -140 655 -21 166 -22 159 33 196 26 18 97 68 157
113 61 44 135 98 166 120 102 74 362 265 484 356 118 88 121 89 170 86 28 -2
95 -19 150 -38z m4553 10 c26 -18 108 -77 183 -133 75 -55 205 -149 288 -210
84 -60 221 -160 304 -221 l152 -111 -3 -114 c-2 -63 -9 -140 -17 -172 -8 -32
-15 -68 -15 -80 0 -29 -49 -236 -71 -302 -6 -16 -15 -48 -20 -70 -14 -57 -86
-260 -113 -320 -13 -27 -34 -75 -47 -105 -19 -46 -123 -246 -163 -315 -42 -70
-59 -95 -69 -95 -7 0 -282 0 -612 0 l-600 0 -22 23 c-20 20 -273 365 -417 567
-34 47 -67 92 -74 100 -7 8 -42 57 -79 109 l-67 93 13 42 c7 22 19 64 27 91 7
28 18 59 23 70 13 28 61 173 71 215 4 19 24 80 43 135 19 55 47 141 62 190 47
154 87 269 101 297 10 19 27 31 57 39 62 18 227 69 267 83 72 27 106 38 160
52 30 8 67 21 82 29 15 7 42 17 60 20 47 10 307 94 343 110 52 24 101 18 153
-17z m-1825 -1658 c12 -14 85 -111 162 -215 76 -105 204 -278 284 -385 176
-237 185 -252 177 -288 -10 -43 -97 -314 -111 -347 -11 -26 -140 -421 -183
-560 -8 -27 -21 -66 -28 -85 -7 -19 -21 -62 -31 -94 -17 -57 -19 -60 -63 -71
-132 -35 -182 -45 -217 -45 -22 0 -59 -6 -84 -14 -149 -47 -796 -47 -981 0
-32 8 -73 14 -91 14 -18 0 -53 6 -78 14 -24 7 -66 19 -94 25 -63 15 -72 23
-80 70 -3 21 -24 89 -46 152 -23 63 -43 125 -46 139 -2 14 -11 39 -18 55 -7
17 -34 98 -60 180 -26 83 -66 202 -87 265 -22 63 -43 129 -48 145 -4 17 -17
57 -29 90 -11 33 -21 71 -21 83 0 21 33 72 132 207 13 17 91 122 174 235 83
113 182 248 221 300 38 52 76 105 84 117 7 13 25 27 39 31 14 5 267 8 563 8
l539 -1 21 -25z"/>
</g>
</svg>
