 <svg  version="1.0" xmlns="http://www.w3.org/2000/svg"  width="900.000000pt" height="831.000000pt" viewBox="0 0 900.000000 831.000000"  preserveAspectRatio="xMidYMid meet">  <g transform="translate(0.000000,831.000000) scale(0.100000,-0.100000)" fill="#e5c618" stroke="none"> <path d="M1434 6942 c-118 -42 -189 -141 -187 -261 0 -84 28 -146 88 -199 67 -58 102 -72 187 -72 62 0 80 4 124 30 56 31 105 87 129 144 19 46 19 147 0 193 -57 136 -212 211 -341 165z"/> <path d="M2985 6951 c-80 -21 -140 -68 -185 -146 -18 -32 -23 -56 -23 -120 -1 -70 3 -87 28 -133 52 -95 132 -142 242 -142 83 0 132 21 191 80 132 133 101 342 -65 432 -53 30 -138 42 -188 29z"/> <path d="M4510 6951 c-100 -33 -181 -110 -200 -193 -34 -140 23 -263 153 -329 33 -17 54 -20 121 -17 67 3 89 9 126 32 76 47 138 151 139 231 2 101 -73 216 -166 257 -50 22 -135 32 -173 19z"/> <path d="M1395 6120 c-131 -28 -221 -76 -314 -168 -61 -61 -86 -95 -118 -162 -76 -157 -73 -118 -73 -1059 0 -523 4 -842 10 -846 5 -3 285 -6 621 -5 481 0 614 3 621 12 4 7 7 400 5 873 -2 703 -5 866 -16 895 -8 19 -23 58 -34 85 -107 273 -414 438 -702 375z"/> <path d="M2980 6134 c-76 -15 -179 -48 -233 -75 -85 -43 -212 -172 -255 -259 -70 -141 -66 -83 -69 -1039 -2 -476 1 -869 5 -873 5 -5 285 -8 622 -8 486 0 615 2 622 12 12 20 10 1655 -3 1703 -5 22 -15 57 -20 79 -39 156 -166 312 -314 388 -100 52 -275 87 -355 72z"/> <path d="M4449 6121 c-219 -47 -376 -180 -465 -396 l-29 -70 -3 -879 c-1 -484 1 -883 6 -888 9 -9 1218 -12 1232 -3 6 4 10 323 9 843 0 847 -4 961 -38 995 -6 6 -11 17 -11 23 0 21 -66 126 -111 177 -91 105 -203 167 -352 198 -111 23 -128 23 -238 0z"/> <path d="M923 3592 c-14 -15 -9 -188 8 -277 6 -27 15 -108 19 -180 5 -71 17 -200 26 -285 9 -85 19 -184 23 -220 3 -36 10 -71 14 -77 11 -18 338 -18 355 -1 14 14 17 1014 4 1036 -12 19 -430 22 -449 4z"/> <path d="M1677 3601 c-6 -2 -15 -9 -19 -15 -4 -6 -8 -238 -8 -516 0 -381 3 -509 12 -518 16 -16 354 -17 364 -1 9 15 33 239 34 314 0 33 7 89 15 125 8 36 14 100 15 142 0 43 6 126 14 185 8 59 16 146 18 193 l3 85 -218 5 c-119 3 -223 3 -230 1z"/> <path d="M2450 3593 c-14 -10 -16 -20 -9 -55 4 -24 8 -71 9 -105 0 -60 10 -177 31 -348 5 -44 14 -141 19 -215 13 -182 29 -302 42 -317 14 -18 339 -18 356 -1 14 14 17 1014 3 1036 -11 19 -425 23 -451 5z"/> <path d="M3199 3592 c-18 -13 -19 -37 -19 -521 0 -421 2 -511 14 -520 9 -8 68 -11 187 -9 l174 3 7 68 c3 37 11 90 17 118 6 27 11 82 11 122 0 40 7 126 15 192 27 228 39 360 39 455 l1 95 -214 5 c-166 4 -218 2 -232 -8z"/> <path d="M3979 3598 c-22 -8 -22 -30 2 -233 5 -44 14 -138 19 -210 5 -71 16 -191 24 -265 9 -74 18 -179 22 -232 4 -58 12 -102 19 -108 8 -7 77 -9 186 -8 l174 3 3 528 c2 418 0 527 -10 527 -147 5 -424 3 -439 -2z"/> <path d="M4737 3601 c-36 -10 -37 -24 -37 -522 0 -296 4 -498 10 -514 l10 -25 182 2 183 3 2 30 c3 39 32 308 43 410 5 44 12 123 15 175 3 52 13 140 21 195 8 55 14 132 12 170 l-3 70 -213 5 c-117 3 -218 3 -225 1z"/> <path d="M7138 2909 c-43 -4 -98 -15 -123 -23 -25 -9 -51 -16 -57 -16 -49 0 -245 -104 -336 -178 -79 -64 -84 -69 -80 -91 4 -29 237 -214 257 -205 9 3 30 11 46 17 17 6 44 16 60 23 17 6 80 30 140 52 240 89 235 85 235 166 0 28 7 92 14 141 14 87 14 91 -6 108 -22 18 -32 19 -150 6z"/> <path d="M7575 2828 c-17 -80 -25 -153 -25 -233 l0 -92 126 -159 c70 -87 146 -181 169 -207 40 -44 46 -47 82 -42 21 2 94 9 163 15 68 6 129 15 135 21 11 11 -31 143 -72 224 -102 200 -277 372 -473 464 -78 37 -98 39 -105 9z"/> <path d="M6338 2329 c-10 -17 -18 -37 -18 -46 0 -8 -6 -27 -14 -41 -21 -41 -35 -99 -51 -220 -12 -94 -12 -125 -1 -214 19 -145 35 -201 88 -315 32 -71 40 -70 151 16 55 42 115 90 133 107 l33 30 -5 130 c-15 411 -7 374 -94 444 -24 19 -71 59 -105 88 -34 28 -71 52 -81 52 -11 0 -27 -14 -36 -31z"/> <path d="M7255 2278 c-27 -11 -93 -35 -145 -55 -219 -80 -195 -47 -192 -265 3 -214 8 -262 31 -281 9 -8 81 -31 161 -51 80 -20 167 -43 194 -51 84 -26 84 -26 166 98 41 61 77 116 79 121 2 4 23 37 47 72 24 35 44 70 44 77 0 12 -26 46 -190 250 -96 120 -102 122 -195 85z"/> <path d="M8040 1834 c-74 -7 -138 -13 -142 -13 -6 -1 -78 -97 -78 -105 0 -2 -40 -64 -88 -138 -49 -73 -99 -151 -112 -174 l-24 -41 38 -99 c20 -54 46 -125 57 -156 11 -31 27 -59 35 -62 33 -13 152 72 254 180 142 151 232 331 261 525 17 111 31 105 -201 83z"/> <path d="M6793 1393 c-112 -77 -233 -170 -238 -183 -13 -29 199 -186 278 -205 15 -4 29 -11 32 -15 3 -5 31 -16 63 -25 31 -9 77 -23 101 -31 31 -10 99 -14 227 -14 207 0 219 4 195 63 -7 18 -33 86 -58 152 -25 66 -52 128 -60 137 -8 9 -45 25 -81 36 -160 45 -222 62 -235 62 -8 0 -50 11 -93 25 -43 14 -82 25 -85 25 -3 0 -24 -12 -46 -27z"/> </g> </svg> 