<svg  version="1.0" xmlns="http://www.w3.org/2000/svg"  width="300.000000pt" height="301.000000pt" viewBox="0 0 300.000000 301.000000"  preserveAspectRatio="xMidYMid meet">  <g transform="translate(0.000000,301.000000) scale(0.050000,-0.050000)" fill="#e5c618" stroke="none"> 
  <path d="M3078 5298 c-365 -56 -589 -452 -457 -806 144 -386 668 -503 966 -216 424 409 74 1113 -509 1022z" transform="translate(0,-500)"/> 
  <path d="M1618 5194 c-268 -76 -460 -356 -432 -630 53 -509 657 -727 1014 -366 433 439 9 1163 -582 996z" transform="translate(0,-500)"/> 
  <path d="M4430 5202 c-461 -122 -608 -691 -262 -1018 381 -361 1001 -91 999 436 -1 378 -380 677 -737 582z" transform="translate(0,-500)"/> 
  <path d="M2364 3665 c-122 -191 -150 -317 -160 -720 -4 -201 -2 -365 6 -365 7 0 59 40 115 89 470 411 1203 409 1710 -4 l105 -85 0 358 c0 390 -22 509 -127 688 -84 144 -104 151 -153 54 -269 -527 -1065 -525 -1366 2 -55 98 -57 98 -130 -17z"/> <path d="M977 3585 c-148 -228 -146 -211 -153 -1092 -5 -728 -3 -801 28 -835 32 -35 70 -38 508 -38 l474 0 13 150 c7 82 31 203 53 269 36 108 40 171 40 640 l0 520 -85 -11 c-267 -37 -599 135 -748 387 -62 104 -69 104 -130 10z"/> <path d="M5235 3557 c-150 -234 -379 -363 -649 -366 l-166 -1 0 -523 c0 -459 5 -538 39 -650 21 -70 44 -188 52 -262 l14 -135 476 0 c470 0 477 1 508 44 46 66 46 1450 0 1625 -33 129 -114 292 -170 342 -33 30 -40 25 -104 -74z"/> <path d="M3320 2430 l0 -267 135 -98 c74 -53 146 -104 159 -112 32 -19 506 128 506 157 0 136 -354 453 -590 528 -233 74 -210 97 -210 -208z"/> <path d="M2830 2644 c-216 -74 -426 -241 -549 -436 -74 -116 -84 -106 202 -198 l234 -75 161 114 162 114 0 258 0 259 -55 -1 c-30 0 -100 -16 -155 -35z"/> <path d="M3044 1828 c-138 -103 -139 -106 -77 -288 l45 -130 167 0 167 0 47 139 c62 184 65 174 -82 279 -154 110 -119 110 -267 0z"/> <path d="M2120 1658 c0 -266 67 -466 225 -673 102 -134 85 -140 261 102 l150 208 -63 187 -63 188 -220 74 c-306 103 -290 108 -290 -86z"/> <path d="M3935 1744 l-215 -72 -61 -186 -62 -186 143 -200 c174 -243 163 -235 239 -155 165 172 294 582 253 800 -17 92 -20 92 -297 -1z"/> <path d="M2829 927 c-175 -244 -176 -239 31 -303 222 -69 750 -20 809 74 5 8 -60 111 -144 229 l-154 213 -194 0 -194 0 -154 -213z"/> </g> </svg> 