 <svg  version="1.0" xmlns="http://www.w3.org/2000/svg"  width="300.000000pt" height="340.000000pt" viewBox="0 0 300.000000 340.000000"  preserveAspectRatio="xMidYMid meet">  <g transform="translate(0.000000,340.000000) scale(0.050000,-0.050000)" fill="#e51f1f" stroke="none"> <path d="M2705 5930 c-249 -64 -613 -249 -703 -357 -29 -35 -12 -41 360 -123 288 -64 269 -74 457 239 205 341 213 326 -114 241z"/> <path d="M2980 5675 c-101 -168 -194 -320 -206 -338 -23 -36 173 -536 215 -547 11 -3 134 -30 271 -59 138 -30 283 -66 323 -80 l73 -26 201 172 c153 131 200 183 194 213 -5 22 -24 208 -43 414 l-34 374 -122 51 c-174 73 -422 130 -565 131 l-123 0 -184 -305z"/> <path d="M4149 5508 c23 -317 46 -472 75 -500 29 -29 590 -161 608 -143 63 63 -366 612 -610 780 l-87 60 14 -197z"/> <path d="M1752 5329 c-136 -163 -333 -528 -331 -613 0 -14 104 -143 231 -286 126 -143 241 -281 253 -307 23 -46 28 -47 194 -34 387 30 367 23 427 138 30 57 111 194 181 306 l127 202 -110 260 -111 260 -88 13 c-49 6 -223 43 -387 82 -164 38 -301 70 -304 70 -3 0 -40 -41 -82 -91z"/> <path d="M3965 4699 c-219 -190 -212 -173 -73 -175 177 -1 348 -156 348 -314 0 -28 22 -14 89 55 236 247 593 128 631 -211 13 -112 15 -104 17 92 3 181 -38 501 -68 531 -3 4 -117 32 -253 63 -135 30 -303 69 -373 87 -69 18 -128 33 -130 33 -1 -1 -86 -73 -188 -161z"/> <path d="M2948 4611 c-52 -36 -328 -495 -328 -544 0 -58 394 -507 444 -507 25 0 556 839 556 878 0 44 -95 82 -343 139 -321 74 -279 70 -329 34z"/> <path d="M1353 4445 c-40 -242 -5 -631 80 -885 50 -148 55 -145 221 130 188 313 190 292 -65 587 -244 280 -220 264 -236 168z"/> <path d="M3767 4345 c-23 -19 -143 -197 -266 -395 -239 -383 -391 -604 -519 -750 -102 -116 -117 -102 -202 194 -78 271 -116 316 -261 316 -162 0 -212 -67 -200 -266 28 -457 5 -718 -88 -1014 -11 -33 34 -78 250 -256 l262 -216 201 131 c463 302 879 288 1270 -44 l104 -88 176 148 c97 81 291 239 431 352 312 250 345 308 266 461 -72 140 -196 130 -457 -37 -248 -159 -252 -154 -42 56 485 484 493 498 417 646 -98 188 -220 150 -602 -188 -174 -154 -335 -295 -357 -313 -51 -42 -52 -43 263 358 404 513 407 517 407 583 0 125 -87 216 -206 217 -114 0 -122 -7 -495 -435 -190 -217 -367 -417 -395 -445 -32 -32 23 91 152 344 198 388 211 420 206 513 -6 127 -212 211 -315 128z"/> <path d="M2186 3952 c-123 -13 -227 -27 -232 -32 -5 -6 -24 -41 -44 -78 -19 -37 -102 -180 -184 -316 -107 -178 -146 -261 -138 -292 26 -105 441 -555 509 -554 76 2 119 286 85 571 -31 259 -28 324 17 418 50 103 181 191 284 191 l75 0 -34 60 c-21 38 -49 59 -74 57 -22 -1 -141 -13 -264 -25z"/> <path d="M2063 2166 c-177 -207 -173 -213 500 -775 676 -564 667 -560 852 -345 36 41 65 83 65 92 0 17 -79 84 -790 671 -264 218 -495 409 -513 425 -29 25 -41 17 -114 -68z"/> <path d="M3375 2138 c-121 -28 -495 -238 -495 -278 0 -14 630 -547 689 -584 13 -8 152 112 332 286 l308 299 -59 51 c-244 206 -519 287 -775 226z"/> <path d="M1677 1375 c-149 -179 -318 -381 -376 -450 l-104 -125 856 0 c809 0 859 2 880 37 19 30 -864 810 -972 858 -7 3 -134 -141 -284 -320z"/> </g> </svg> 