 <svg  version="1.0" xmlns="http://www.w3.org/2000/svg"  width="900.000000pt" height="1239.000000pt" viewBox="0 0 900.000000 1239.000000"  preserveAspectRatio="xMidYMid meet">  <g transform="translate(0.000000,1239.000000) scale(0.100000,-0.100000)" fill="#0b990d" stroke="none"> <path d="M4970 10569 c-41 -4 -125 -12 -186 -17 -61 -5 -120 -15 -132 -21 -11 -6 -33 -11 -48 -11 -28 0 -126 -23 -179 -42 -16 -5 -48 -14 -70 -18 -36 -8 -120 -36 -253 -85 -69 -25 -122 -55 -129 -71 -6 -17 7 -47 57 -129 16 -27 34 -59 40 -70 5 -11 16 -29 22 -40 23 -35 62 -100 74 -120 6 -11 64 -112 129 -225 65 -113 131 -227 147 -255 16 -27 38 -63 48 -80 10 -16 29 -50 42 -74 40 -76 -1 -71 621 -71 l558 0 22 24 c19 20 71 108 182 305 12 20 33 55 48 78 15 24 27 45 27 48 0 3 12 24 27 48 15 23 32 51 38 62 38 68 158 276 212 366 34 59 63 116 63 126 0 14 -16 27 -57 45 -113 51 -260 103 -331 118 -23 5 -50 13 -60 18 -9 5 -55 16 -102 26 -47 9 -103 21 -125 27 -22 6 -83 14 -135 19 -52 5 -140 14 -195 19 -114 12 -245 12 -355 0z"/> <path d="M1228 10195 c-5 -5 -8 -1032 -8 -2284 l0 -2276 23 -37 c12 -21 56 -92 97 -158 41 -66 80 -128 85 -138 6 -9 28 -44 50 -77 22 -33 44 -68 50 -78 5 -9 65 -104 131 -210 67 -105 151 -239 187 -297 36 -58 69 -109 74 -115 5 -5 28 -43 53 -83 25 -40 52 -84 60 -97 8 -13 48 -77 88 -142 40 -65 102 -163 137 -218 36 -55 90 -140 121 -190 30 -49 84 -135 119 -190 35 -55 76 -120 91 -145 15 -25 51 -81 79 -125 51 -80 271 -429 290 -463 6 -9 21 -33 33 -52 22 -35 22 -35 22 -568 0 -348 4 -540 10 -553 11 -19 35 -19 1245 -19 1108 0 1235 2 1249 16 14 14 16 139 16 1227 0 1317 -3 1383 -54 1542 -81 248 -244 468 -467 633 -144 105 -132 89 -113 147 9 28 22 64 29 80 6 17 26 75 44 130 68 213 211 651 221 680 6 17 20 59 31 95 12 36 27 81 34 100 24 67 37 105 56 170 11 36 26 81 34 100 120 313 113 580 -22 787 -49 74 -153 168 -231 207 -297 150 -642 54 -838 -234 -38 -55 -94 -167 -94 -187 0 -8 -6 -27 -14 -41 -8 -15 -24 -54 -35 -87 -11 -33 -34 -98 -52 -145 -17 -47 -36 -101 -41 -120 -6 -19 -14 -39 -18 -45 -4 -5 -14 -32 -23 -60 -8 -27 -39 -115 -67 -195 -28 -80 -60 -171 -71 -204 -10 -32 -22 -63 -26 -70 -10 -14 -62 -161 -73 -204 -4 -18 -12 -38 -17 -45 -5 -7 -17 -39 -28 -72 -10 -33 -22 -64 -26 -70 -4 -5 -11 -26 -17 -45 -5 -19 -24 -73 -41 -120 -18 -47 -48 -132 -68 -190 -20 -58 -48 -139 -63 -180 -15 -41 -38 -104 -50 -140 -12 -36 -27 -74 -33 -85 -6 -11 -14 -33 -18 -50 -16 -64 -38 -110 -52 -113 -16 -3 -39 4 -187 58 -47 17 -98 36 -115 42 -105 36 -164 61 -168 71 -4 13 10 58 62 197 18 47 36 100 41 118 4 18 12 38 17 45 5 7 17 39 28 72 10 33 23 65 28 72 5 7 13 27 17 45 5 18 23 71 40 118 55 146 61 169 48 193 -6 12 -36 52 -67 88 -31 36 -81 96 -111 134 -60 73 -91 112 -281 339 -68 83 -134 163 -147 180 l-22 30 0 1315 c0 1118 -2 1328 -15 1393 -56 296 -231 540 -487 678 -40 22 -77 42 -83 44 -5 1 -26 8 -45 15 -139 49 -160 52 -405 58 -132 3 -243 2 -247 -2z"/> <path d="M3450 10012 c-118 -90 -259 -213 -338 -297 -120 -125 -123 -130 -112 -180 32 -134 40 -327 40 -926 0 -544 2 -607 16 -613 21 -8 465 -6 486 2 14 6 137 202 172 274 3 7 16 29 27 48 33 54 204 350 297 513 l84 148 -53 92 c-58 103 -136 235 -291 502 -58 99 -116 198 -128 220 -64 115 -135 231 -144 237 -15 11 -17 10 -56 -20z"/> <path d="M6788 10023 c-18 -20 -96 -150 -218 -363 -46 -80 -91 -158 -102 -175 -10 -16 -21 -37 -25 -45 -3 -8 -18 -33 -32 -55 -14 -22 -32 -53 -41 -70 -9 -16 -47 -82 -85 -145 -38 -63 -77 -132 -87 -153 l-19 -38 68 -121 c37 -67 80 -142 95 -167 15 -25 32 -55 38 -66 6 -11 16 -29 23 -40 7 -11 43 -74 81 -140 38 -66 97 -169 132 -228 35 -60 64 -110 64 -113 0 -3 16 -29 35 -59 l35 -55 601 0 c409 0 607 3 620 11 14 7 18 16 14 27 -3 9 -11 53 -16 97 -5 44 -16 109 -24 145 -7 36 -19 92 -25 125 -7 33 -18 76 -25 95 -7 19 -22 67 -35 105 -34 106 -39 122 -88 240 -85 203 -204 412 -330 579 -147 195 -297 357 -447 482 -70 58 -182 144 -188 144 -2 0 -11 -8 -19 -17z"/> <path d="M4568 8703 c-9 -10 -24 -34 -35 -53 -10 -19 -31 -54 -46 -77 -15 -24 -27 -45 -27 -47 0 -3 -24 -45 -53 -93 -64 -106 -209 -361 -219 -385 -13 -31 10 -29 79 5 74 37 218 87 325 111 86 21 339 22 411 2 29 -7 75 -19 103 -25 115 -27 282 -108 389 -190 199 -153 376 -414 425 -631 20 -85 41 -150 50 -150 8 0 91 136 150 245 18 33 36 65 41 70 24 32 129 227 129 241 0 14 -127 242 -267 479 -32 55 -62 107 -66 115 -4 8 -15 29 -26 45 -10 17 -55 95 -100 175 -46 80 -90 153 -98 163 -15 16 -56 17 -583 17 -527 0 -568 -1 -582 -17z"/> <path d="M3047 7454 c-13 -13 -8 -573 5 -597 13 -25 275 -344 290 -353 13 -8 38 15 38 37 0 10 6 33 14 51 22 52 67 172 165 447 l90 254 -47 81 -48 81 -250 3 c-138 1 -253 -1 -257 -4z"/> <path d="M6738 7443 c-8 -10 -35 -54 -60 -98 -46 -82 -266 -466 -299 -520 -10 -16 -26 -46 -37 -65 -11 -19 -50 -87 -86 -150 -37 -63 -69 -125 -72 -137 -4 -15 8 -48 37 -100 89 -164 102 -187 130 -235 16 -27 29 -51 29 -54 0 -2 11 -22 25 -44 24 -38 43 -73 123 -220 118 -219 225 -407 239 -417 13 -10 29 -2 97 49 245 185 483 436 649 687 98 148 120 186 190 331 61 128 74 156 119 275 70 184 126 407 147 582 6 48 12 97 13 108 3 20 -4 20 -613 23 -577 2 -617 1 -631 -15z"/> <path d="M5743 6122 c-6 -4 -21 -39 -33 -77 -12 -39 -28 -86 -35 -105 -7 -19 -21 -60 -31 -90 -9 -30 -22 -71 -29 -90 -23 -67 -36 -105 -57 -170 -12 -36 -27 -79 -35 -97 -7 -17 -16 -52 -19 -76 l-6 -45 79 -84 c84 -90 146 -168 207 -260 41 -62 56 -68 120 -48 285 88 389 128 394 153 2 9 -3 29 -10 44 -22 42 -99 185 -113 208 -7 11 -32 56 -55 100 -24 44 -54 98 -67 120 -12 22 -26 47 -30 55 -4 8 -19 36 -34 61 -56 96 -156 278 -201 367 -23 44 -26 46 -45 34z"/> </g> </svg> 