 <svg  version="1.0" xmlns="http://www.w3.org/2000/svg"  width="900.000000pt" height="888.000000pt" viewBox="0 0 900.000000 888.000000"  preserveAspectRatio="xMidYMid meet">  <g transform="translate(0.000000,888.000000) scale(0.100000,-0.100000)" fill="#e51f1f" stroke="none"> <path d="M7125 7389 c-266 -65 -477 -305 -504 -573 -36 -360 171 -663 514 -751 66 -17 239 -20 295 -5 133 35 147 41 256 112 119 78 221 223 265 376 24 86 26 273 3 353 -25 90 -62 165 -117 237 -167 221 -441 317 -712 251z"/> <path d="M1372 5817 c-74 -31 -142 -93 -177 -163 l-30 -59 -3 -1725 c-2 -1201 0 -1736 8 -1762 16 -55 80 -129 136 -158 70 -36 191 -36 249 -1 58 35 83 60 113 111 l27 45 5 1590 5 1590 2853 5 c1796 3 2857 1 2863 -4 5 -6 9 -602 9 -1580 l0 -1571 24 -50 c12 -27 34 -64 48 -80 63 -75 210 -107 300 -67 62 27 124 86 148 140 20 44 20 69 20 1771 0 1974 10 1780 -95 1886 -44 45 -76 67 -118 83 l-59 22 -3136 0 -3137 -1 -53 -22z"/> <path d="M1993 5023 c-10 -4 -13 -280 -13 -1334 0 -1200 2 -1330 16 -1336 8 -3 28 3 42 14 15 11 99 68 187 127 l159 106 2183 0 2182 0 181 -120 c99 -66 187 -123 196 -127 9 -3 20 0 25 8 14 23 12 2642 -3 2657 -9 9 -595 12 -2578 11 -1411 0 -2571 -3 -2577 -6z m1188 -553 c18 -10 19 -23 19 -190 0 -106 -4 -181 -10 -185 -13 -8 -507 -8 -520 0 -6 4 -10 76 -10 185 0 160 2 180 18 189 23 14 477 14 503 1z m1097 -2 c15 -15 17 -364 2 -373 -20 -12 -511 -7 -526 6 -11 9 -14 46 -14 178 0 91 4 171 8 177 13 20 37 22 278 23 174 1 243 -2 252 -11z m1126 -4 c13 -13 16 -44 16 -182 0 -92 -4 -173 -9 -180 -12 -19 -550 -20 -562 0 -12 19 -11 335 1 359 10 18 24 19 275 19 226 0 266 -2 279 -16z m1047 6 c18 -10 19 -23 19 -190 0 -101 -4 -181 -9 -185 -6 -3 -114 -6 -241 -6 -165 0 -235 3 -246 11 -11 10 -14 46 -14 179 0 91 4 171 8 177 4 6 14 14 22 17 28 10 440 7 461 -3z m-3268 -943 c16 -11 17 -32 15 -192 l-3 -180 -265 0 -265 0 -3 183 c-2 182 -2 183 20 192 37 14 481 12 501 -3z m1095 1 c13 -13 18 -331 6 -362 -5 -14 -39 -16 -269 -16 l-263 0 -6 23 c-8 29 -8 286 0 325 4 17 14 33 23 35 9 3 124 5 257 6 175 1 243 -2 252 -11z m1132 -8 c12 -18 13 -340 2 -357 -6 -9 -78 -13 -281 -13 -150 -1 -276 2 -280 5 -11 12 -13 329 -2 358 l11 28 270 -3 c228 -3 272 -5 280 -18z m1035 10 l25 -10 -2 -182 -3 -183 -246 -3 -247 -2 -6 22 c-8 33 -7 331 2 344 4 6 14 14 22 17 26 10 428 7 455 -3z"/> </g> </svg> 