 <svg  version="1.0" xmlns="http://www.w3.org/2000/svg"  width="900.000000pt" height="753.000000pt" viewBox="0 0 900.000000 753.000000"  preserveAspectRatio="xMidYMid meet">  <g transform="translate(0.000000,753.000000) scale(0.100000,-0.100000)" fill="#e5c618" stroke="none"> <path d="M1996 6210 c-66 -20 -105 -92 -86 -161 13 -46 48 -78 97 -90 21 -5 669 -9 1476 -9 1366 0 1437 -1 1426 -17 -6 -10 -41 -36 -77 -57 -138 -81 -315 -227 -455 -378 -59 -62 -120 -131 -136 -153 -43 -57 -133 -192 -164 -245 -41 -71 -127 -250 -127 -263 0 -7 -4 -17 -9 -22 -10 -10 -66 -176 -94 -275 -64 -230 -95 -598 -63 -753 9 -42 16 -97 16 -123 0 -45 7 -83 46 -244 20 -81 83 -271 95 -286 4 -6 10 -26 11 -45 l3 -34 -1016 -3 -1016 -2 -37 -33 c-31 -26 -39 -41 -43 -77 -6 -61 8 -94 58 -130 l42 -30 1088 0 1087 0 23 -37 c145 -238 459 -541 724 -697 44 -26 87 -51 95 -56 59 -36 302 -140 328 -140 10 0 27 -7 38 -15 10 -8 29 -15 42 -15 13 0 31 -4 41 -9 20 -11 172 -43 311 -66 146 -23 481 -21 635 5 240 41 309 59 495 130 342 131 664 365 916 665 48 57 163 223 178 255 3 8 15 29 26 45 10 17 40 73 66 125 86 177 102 218 143 355 27 92 35 130 73 315 18 89 18 601 0 685 -33 158 -46 207 -73 300 -43 145 -63 194 -140 349 -30 60 -64 125 -76 143 -13 19 -23 36 -23 38 0 6 -90 136 -139 200 -73 95 -317 334 -421 411 -215 160 -460 286 -690 355 -36 11 -85 26 -110 34 -25 8 -57 15 -72 15 -15 0 -39 5 -55 11 -15 6 -93 17 -173 25 -120 11 -505 14 -2200 13 -1130 0 -2068 -5 -2084 -9z m3317 -474 c34 -25 80 -58 102 -74 76 -56 244 -177 346 -252 155 -113 139 -70 139 -366 l0 -256 -29 -26 c-15 -15 -88 -71 -162 -124 -74 -53 -205 -149 -293 -212 -87 -64 -167 -116 -177 -116 -10 0 -54 16 -96 36 -43 19 -91 41 -108 49 -16 7 -78 36 -136 63 l-107 50 -17 54 c-9 29 -22 69 -30 88 -7 19 -27 82 -45 140 -18 58 -38 119 -46 137 -8 17 -14 38 -14 47 0 8 -6 30 -14 48 -26 63 -76 227 -76 251 0 17 27 50 93 113 119 116 264 225 402 303 61 34 121 69 135 76 41 23 67 17 133 -29z m1623 -7 c181 -94 330 -203 482 -352 60 -59 82 -88 82 -106 0 -23 -18 -86 -55 -191 -7 -19 -34 -102 -60 -185 -26 -82 -53 -166 -60 -185 -7 -19 -23 -69 -36 -110 -12 -41 -29 -82 -38 -91 -9 -8 -52 -32 -96 -52 -44 -19 -111 -50 -150 -67 -38 -18 -93 -43 -121 -56 -28 -13 -58 -24 -67 -24 -18 0 -70 34 -217 142 -58 43 -132 97 -165 121 -198 142 -264 194 -269 212 -3 11 -6 130 -6 265 0 202 3 249 15 267 8 12 52 47 97 79 46 32 135 96 198 143 63 47 126 94 140 103 14 9 61 44 105 77 44 32 89 60 101 60 12 1 66 -22 120 -50z m-2198 -1493 c32 -16 145 -69 222 -103 191 -85 197 -91 215 -173 4 -19 13 -48 20 -65 7 -16 34 -97 60 -180 26 -82 53 -164 61 -182 8 -17 14 -36 14 -43 0 -6 14 -51 30 -100 17 -49 30 -97 30 -107 0 -17 -26 -53 -90 -127 -126 -146 -155 -178 -171 -186 -10 -6 -179 -10 -404 -10 l-386 0 -22 24 c-22 24 -40 58 -92 166 -77 161 -147 410 -159 567 l-6 73 58 42 c32 24 112 81 176 128 65 47 181 131 258 188 77 56 145 102 150 102 6 0 22 -6 36 -14z m2704 -47 c46 -33 99 -71 118 -85 127 -91 344 -249 388 -284 52 -41 54 -44 47 -79 -4 -20 -15 -81 -25 -136 -19 -108 -55 -237 -90 -325 -12 -30 -24 -65 -27 -77 -3 -12 -11 -28 -19 -34 -8 -6 -14 -18 -14 -26 0 -16 -65 -138 -88 -165 -14 -17 -46 -18 -410 -18 l-394 0 -37 38 c-20 20 -58 64 -86 96 -27 33 -71 84 -97 114 -27 30 -48 62 -48 71 0 16 71 247 95 311 22 56 96 282 105 320 18 76 46 135 70 147 27 14 208 98 300 140 30 13 66 31 80 38 14 8 31 15 37 15 7 0 50 -27 95 -61z m-991 -1102 c84 -82 249 -281 249 -301 0 -9 -4 -24 -9 -34 -6 -9 -31 -84 -56 -167 -26 -82 -53 -166 -60 -185 -25 -63 -97 -284 -102 -313 -7 -37 -33 -51 -123 -68 -102 -19 -561 -19 -645 -1 -33 8 -69 15 -81 18 -29 5 -44 40 -114 264 -34 107 -68 211 -75 230 -7 19 -20 60 -30 90 -9 30 -21 64 -26 75 -5 11 -13 39 -18 63 -10 49 -17 38 129 207 52 61 101 118 109 128 14 16 47 17 422 17 l406 0 24 -23z"/> <path d="M1410 5160 c-85 -11 -130 -57 -130 -132 0 -36 6 -52 34 -84 l34 -39 1158 -2 c915 -2 1164 0 1184 10 35 18 70 74 70 114 0 47 -23 87 -66 114 l-37 23 -1101 0 c-606 1 -1121 -1 -1146 -4z"/> <path d="M1732 4102 c-12 -4 -38 -22 -57 -41 -31 -30 -35 -40 -35 -83 0 -58 24 -98 72 -122 27 -14 133 -16 904 -16 987 0 925 -5 965 77 37 76 0 161 -79 183 -41 11 -1730 13 -1770 2z"/> <path d="M2492 1971 c-65 -48 -78 -125 -30 -186 45 -58 -10 -55 1070 -55 949 0 994 1 1021 19 43 28 61 60 61 111 1 60 -19 97 -66 121 -36 18 -73 19 -1026 19 l-989 0 -41 -29z"/> </g> </svg> 