 <svg  version="1.0" xmlns="http://www.w3.org/2000/svg"  width="900.000000pt" height="762.000000pt" viewBox="0 0 900.000000 762.000000"  preserveAspectRatio="xMidYMid meet">  <g transform="translate(0.000000,762.000000) scale(0.100000,-0.100000)" fill="#e5c618" stroke="none"> <path d="M1010 6349 c-74 -39 -152 -124 -182 -196 l-23 -58 0 -1835 c0 -1753 1 -1837 18 -1888 36 -103 162 -192 272 -192 75 0 171 46 224 106 76 87 71 -43 71 1817 0 916 3 1672 6 1681 6 15 285 16 3064 16 2436 0 3060 -3 3067 -12 4 -7 10 -776 13 -1708 5 -1589 6 -1697 23 -1730 9 -19 32 -51 50 -71 30 -32 49 -45 129 -85 77 -40 230 5 304 89 80 91 74 -71 74 1971 0 1638 -2 1828 -16 1876 -27 92 -115 187 -212 230 -44 20 -86 20 -3436 19 l-3391 0 -55 -30z"/> <path d="M1697 5503 c-11 -11 -8 -2851 3 -2858 5 -3 100 55 212 130 l202 135 2346 0 c1842 0 2350 -3 2367 -13 12 -6 102 -65 198 -130 97 -65 184 -117 193 -115 16 3 17 93 20 1417 1 1037 -1 1417 -9 1427 -10 12 -459 14 -2769 14 -1516 0 -2760 -3 -2763 -7z m1291 -595 c8 -8 12 -67 12 -200 0 -175 -1 -188 -19 -198 -12 -6 -117 -10 -271 -10 -154 0 -259 4 -271 10 -18 10 -19 23 -19 204 0 106 3 196 7 199 3 4 128 7 278 7 197 0 274 -3 283 -12z m1172 -178 c3 -102 2 -195 -2 -208 l-8 -22 -277 2 -278 3 -3 195 c-1 107 0 200 3 207 3 11 62 13 282 11 l278 -3 5 -185z m1208 -9 c2 -134 -1 -198 -9 -207 -16 -19 -568 -21 -587 -2 -13 13 -18 389 -5 401 4 4 140 6 302 5 l296 -3 3 -194z m1130 187 c8 -8 12 -67 12 -200 0 -178 -1 -188 -20 -198 -14 -7 -103 -10 -266 -8 -204 3 -246 5 -254 18 -15 23 -13 373 2 388 17 17 509 17 526 0z m-3506 -1010 c4 -7 8 -97 8 -200 0 -186 0 -188 -22 -193 -13 -3 -142 -4 -288 -3 l-265 3 0 200 0 199 23 6 c13 3 138 4 279 3 193 -2 259 -6 265 -15z m1163 -190 l0 -203 -282 -3 -283 -2 0 204 c0 128 4 206 10 208 6 2 133 2 283 1 l272 -1 0 -204z m1202 198 c11 -5 13 -43 11 -203 l-3 -198 -300 0 -300 0 0 200 0 199 23 6 c29 6 550 3 569 -4z m1144 -8 c5 -7 9 -97 9 -199 0 -161 -2 -188 -16 -193 -9 -3 -127 -6 -263 -6 -179 0 -250 3 -259 12 -13 13 -17 364 -4 384 11 18 30 19 285 17 184 -2 242 -5 248 -15z"/> <path d="M4270 2375 c-120 -33 -224 -92 -322 -183 -52 -48 -140 -184 -171 -262 -67 -173 -57 -409 25 -575 112 -228 349 -391 593 -408 93 -6 225 5 275 23 136 50 209 92 289 166 60 55 153 181 166 225 4 13 11 29 14 34 14 20 40 122 50 198 17 126 -14 292 -78 416 -62 121 -195 252 -322 316 -150 77 -353 96 -519 50z"/> </g> </svg> 