 <svg  version="1.0" xmlns="http://www.w3.org/2000/svg"  width="900.000000pt" height="1017.000000pt" viewBox="0 0 900.000000 1017.000000"  preserveAspectRatio="xMidYMid meet">  <g transform="translate(0.000000,1017.000000) scale(0.100000,-0.100000)" fill="#e51f1f" stroke="none"> <path d="M4470 9054 c-8 -3 -24 -9 -35 -14 -11 -5 -80 -34 -154 -65 -74 -32 -142 -61 -150 -65 -9 -5 -52 -23 -96 -40 -44 -18 -84 -35 -90 -39 -5 -4 -37 -17 -70 -30 -33 -13 -82 -34 -110 -46 -27 -12 -142 -62 -255 -110 -113 -48 -227 -97 -255 -109 -27 -13 -70 -31 -95 -41 -39 -16 -89 -37 -215 -90 -59 -25 -170 -76 -185 -84 -12 -7 -15 -30 -15 -109 0 -119 -13 -104 162 -192 96 -49 133 -74 178 -121 31 -32 61 -59 66 -59 9 0 133 50 234 94 17 8 59 26 95 41 36 15 88 37 115 50 28 13 95 42 150 65 55 23 119 50 142 61 24 10 46 19 49 19 6 0 60 24 114 50 8 4 56 24 105 44 50 20 104 43 120 51 141 65 175 75 243 75 56 0 84 -6 134 -29 35 -15 131 -56 213 -91 83 -35 175 -74 205 -88 100 -44 114 -51 180 -77 36 -14 83 -34 105 -44 22 -10 112 -49 200 -86 88 -37 188 -80 222 -96 35 -16 65 -29 68 -29 3 0 33 -13 67 -29 35 -15 115 -49 178 -75 63 -26 122 -51 131 -56 8 -4 76 -34 150 -65 74 -31 158 -67 187 -81 29 -13 58 -24 65 -24 7 0 17 -4 23 -9 5 -5 65 -32 134 -61 270 -113 306 -135 346 -217 18 -37 19 -80 19 -1248 0 -902 -3 -1228 -12 -1280 -7 -38 -19 -115 -28 -170 -17 -107 -43 -227 -70 -315 -9 -30 -20 -68 -25 -85 -42 -151 -193 -493 -274 -625 -13 -19 -26 -42 -30 -50 -21 -45 -146 -228 -214 -315 -102 -129 -249 -289 -353 -385 -149 -137 -149 -137 -149 -158 0 -37 40 -69 157 -127 183 -90 221 -127 232 -223 3 -30 11 -57 18 -59 23 -8 322 279 460 442 68 81 222 285 275 365 125 190 297 515 348 660 13 36 26 70 30 75 4 6 15 35 24 65 10 30 24 68 32 83 8 16 14 37 14 47 0 9 6 33 14 51 14 34 60 217 90 359 29 135 41 223 66 475 5 59 9 653 9 1435 1 1272 0 1337 -18 1375 -33 73 -70 100 -256 181 -16 7 -61 27 -98 44 -38 16 -72 30 -77 30 -5 0 -21 6 -37 14 -15 8 -62 29 -103 46 -41 18 -91 39 -110 47 -48 22 -78 34 -205 88 -60 26 -141 61 -180 78 -38 16 -83 36 -100 42 -16 7 -50 22 -75 33 -25 12 -81 35 -125 53 -44 17 -84 35 -90 39 -5 4 -21 11 -35 15 -14 4 -45 17 -70 28 -25 11 -63 28 -85 37 -37 17 -149 65 -220 95 -128 54 -165 69 -200 85 -22 10 -85 37 -140 60 -55 23 -118 50 -140 60 -22 9 -76 32 -120 51 -44 18 -84 36 -90 40 -5 4 -46 21 -90 38 -44 18 -100 41 -125 53 -63 28 -96 43 -165 72 -33 13 -98 41 -145 61 -82 35 -159 51 -190 39z"/> <path d="M2335 8143 c-71 -30 -174 -75 -228 -99 -53 -24 -103 -44 -110 -44 -7 0 -17 -4 -23 -9 -5 -5 -56 -28 -114 -52 -57 -23 -111 -45 -120 -50 -32 -17 -152 -69 -160 -69 -5 0 -21 -6 -37 -14 -15 -8 -62 -30 -104 -49 -42 -19 -88 -47 -103 -63 -60 -64 -57 48 -53 -1536 3 -1423 4 -1456 24 -1593 22 -144 66 -367 82 -420 5 -16 17 -57 26 -90 10 -33 29 -91 42 -130 13 -38 28 -85 33 -103 4 -18 20 -63 35 -100 27 -68 32 -80 80 -187 289 -649 792 -1234 1400 -1627 150 -97 346 -204 485 -265 41 -18 83 -37 92 -43 19 -11 33 -16 193 -73 102 -36 280 -91 325 -101 14 -2 45 -10 70 -16 110 -29 161 -40 249 -54 85 -14 104 -14 195 0 56 8 117 20 136 26 19 6 53 15 75 18 37 7 208 53 315 86 25 7 83 27 130 45 47 17 103 38 125 46 22 8 44 19 50 24 5 5 15 9 22 9 11 0 304 141 358 173 11 7 43 25 70 41 97 56 247 160 252 173 3 8 0 26 -7 41 -7 15 -16 58 -19 95 l-6 69 -75 39 c-189 100 -242 138 -261 188 -12 29 -12 29 -158 -60 -64 -39 -123 -74 -131 -79 -32 -19 -221 -110 -227 -110 -3 0 -29 -11 -58 -24 -85 -41 -250 -97 -395 -135 -47 -12 -109 -30 -139 -39 -71 -21 -239 -21 -307 1 -27 8 -74 21 -104 27 -30 7 -73 18 -95 25 -22 7 -74 23 -115 35 -41 12 -93 31 -116 41 -22 11 -44 19 -48 19 -23 0 -386 179 -454 225 -30 19 -56 35 -59 35 -11 0 -310 212 -323 229 -3 3 -54 50 -115 103 -60 53 -131 118 -156 145 -71 76 -235 267 -255 299 -10 16 -24 34 -30 39 -12 11 -140 206 -191 290 -110 185 -233 472 -293 687 -10 37 -24 76 -29 87 -6 11 -11 33 -11 49 0 16 -6 47 -13 68 -8 22 -19 71 -25 109 -7 39 -20 111 -29 160 -15 80 -17 220 -20 1303 l-4 1213 25 55 c14 30 40 67 57 84 21 19 145 77 353 166 177 75 339 145 361 155 109 49 159 69 171 69 12 0 34 29 34 45 0 3 -39 24 -87 46 -224 105 -313 202 -313 339 0 32 -3 61 -7 63 -5 3 -66 -20 -138 -50z"/> <path d="M4440 8108 c-14 -6 -61 -27 -105 -45 -44 -19 -93 -41 -110 -48 -35 -16 -199 -85 -330 -140 -49 -20 -112 -48 -140 -60 -27 -13 -106 -47 -175 -75 -69 -29 -129 -56 -135 -61 -5 -5 -15 -9 -21 -9 -13 0 -115 -44 -194 -83 -34 -17 -46 -28 -48 -48 -4 -33 17 -49 156 -118 124 -61 182 -101 207 -144 17 -27 19 -50 18 -153 -1 -136 -10 -161 -68 -188 -44 -21 -81 -20 -120 4 -43 27 -65 75 -65 143 0 66 1 65 -159 148 -119 61 -181 117 -199 178 -15 48 -30 51 -95 22 -23 -11 -98 -43 -167 -72 -69 -28 -152 -64 -185 -79 -33 -15 -73 -32 -90 -39 -16 -7 -84 -36 -150 -65 l-120 -51 0 -1195 c0 -1108 1 -1199 17 -1256 10 -34 18 -77 18 -95 0 -37 43 -227 71 -312 10 -31 19 -64 19 -72 0 -8 6 -29 14 -47 8 -18 22 -53 31 -78 26 -68 31 -81 55 -135 26 -59 115 -242 132 -270 7 -11 26 -42 42 -70 193 -327 450 -612 773 -858 34 -26 65 -47 68 -47 4 0 21 -11 37 -25 63 -53 319 -195 461 -255 39 -17 81 -35 92 -40 40 -19 161 -62 195 -70 19 -4 49 -13 65 -19 70 -25 235 -61 281 -61 43 0 226 41 309 69 17 6 66 22 110 37 44 14 94 32 110 39 17 8 62 27 100 43 73 31 169 76 195 92 80 48 171 100 174 100 6 0 127 83 174 118 61 46 51 56 -138 153 -126 65 -222 150 -239 214 -14 53 -13 211 2 254 18 52 58 76 122 75 88 0 125 -52 125 -175 0 -86 4 -91 154 -165 63 -31 137 -76 164 -100 28 -24 55 -44 60 -44 44 0 367 371 478 548 21 35 47 75 56 90 94 149 216 410 268 572 18 58 39 121 45 140 7 19 21 71 30 115 10 44 24 105 32 135 7 30 13 70 13 90 1 19 8 62 17 95 14 53 16 195 20 1213 3 635 2 1164 -1 1178 -4 13 -11 24 -16 24 -6 0 -38 13 -73 29 -34 16 -102 46 -152 66 -49 21 -112 47 -140 60 -27 12 -75 32 -105 45 -30 12 -77 33 -105 45 -27 13 -185 80 -350 150 -165 70 -322 137 -350 150 -27 12 -212 91 -410 175 -198 84 -382 163 -410 175 -206 94 -279 111 -345 83z m-714 -1643 c51 -24 111 -80 421 -388 198 -197 366 -358 372 -356 5 2 171 164 368 360 371 369 388 382 498 410 108 27 253 -17 341 -103 112 -108 142 -290 73 -437 -16 -33 -119 -144 -381 -406 -197 -199 -358 -365 -358 -371 0 -5 160 -169 357 -364 287 -287 361 -365 380 -407 93 -202 17 -418 -181 -512 -66 -31 -74 -33 -165 -29 -158 6 -153 3 -566 414 -196 195 -363 354 -371 352 -8 -2 -166 -154 -351 -339 -186 -184 -356 -349 -378 -365 -154 -114 -402 -75 -513 79 -62 87 -74 130 -70 241 5 158 1 152 411 564 194 194 352 359 352 367 0 8 -158 173 -351 367 -419 421 -409 407 -409 578 0 102 3 121 25 165 44 91 153 179 255 206 59 16 178 3 241 -26z"/> </g> </svg> 