 <svg  version="1.0" xmlns="http://www.w3.org/2000/svg"  width="900.000000pt" height="858.000000pt" viewBox="0 0 900.000000 858.000000"  preserveAspectRatio="xMidYMid meet">  <g transform="translate(0.000000,858.000000) scale(0.100000,-0.100000)" fill="#e51f1f" stroke="none"> <path d="M4478 7446 c-105 -30 -165 -90 -213 -210 -12 -32 -15 -97 -15 -387 0 -340 1 -350 23 -413 32 -85 74 -136 145 -174 54 -29 69 -32 144 -32 70 0 93 4 136 26 76 38 138 111 163 194 19 64 20 88 17 407 -3 328 -4 340 -27 397 -60 150 -224 235 -373 192z"/> <path d="M6177 7221 c-31 -10 -69 -27 -84 -36 -22 -15 -220 -212 -417 -415 -35 -36 -73 -87 -85 -114 -29 -67 -29 -175 0 -242 31 -68 115 -148 179 -169 70 -23 179 -17 240 13 60 29 497 468 529 531 19 37 23 61 22 136 0 84 -2 97 -30 143 -40 69 -95 118 -160 142 -79 30 -127 33 -194 11z"/> <path d="M2795 7214 c-82 -21 -144 -66 -194 -143 -35 -55 -36 -58 -36 -156 0 -86 3 -106 24 -142 32 -60 458 -480 522 -517 46 -26 61 -29 139 -29 71 0 96 4 136 23 144 70 211 242 153 394 -19 50 -48 83 -250 284 -261 260 -292 282 -401 287 -40 2 -82 2 -93 -1z"/> <path d="M4450 5900 c-260 -25 -516 -230 -610 -489 -85 -233 -52 -515 82 -702 118 -165 264 -266 463 -320 69 -19 291 -17 372 3 88 23 221 91 297 154 337 278 371 802 74 1120 -53 56 -165 144 -185 144 -3 0 -14 6 -22 14 -9 7 -56 27 -106 44 -100 34 -228 45 -365 32z"/> <path d="M993 5475 c-111 -27 -221 -124 -261 -230 l-22 -57 0 -1881 c0 -1828 1 -1883 19 -1924 27 -58 91 -124 148 -153 69 -35 196 -35 267 0 59 28 117 84 148 142 l23 43 3 1714 c2 1234 5 1718 13 1728 9 11 204 13 1090 13 694 0 1080 3 1084 10 3 5 1 38 -6 72 -14 76 -15 305 0 368 5 25 15 66 22 92 22 86 142 78 -1245 77 -960 -1 -1242 -4 -1283 -14z"/> <path d="M5607 5484 c-13 -13 -7 -81 10 -120 22 -51 26 -377 5 -436 -8 -21 -11 -42 -7 -48 4 -7 363 -10 1084 -10 885 0 1081 -2 1090 -13 7 -10 11 -494 13 -1718 l3 -1704 22 -47 c29 -63 91 -129 150 -158 41 -21 62 -24 140 -24 86 0 95 2 148 35 32 19 73 54 91 78 68 89 64 -48 64 1992 0 1821 0 1848 -20 1910 -36 113 -124 205 -235 246 -47 17 -118 18 -1301 21 -688 1 -1253 -1 -1257 -4z"/> <path d="M3193 4050 c-22 -5 -61 -19 -85 -31 -55 -28 -457 -424 -507 -499 -35 -54 -36 -57 -36 -155 0 -87 3 -106 24 -144 31 -56 84 -107 146 -139 42 -22 63 -27 130 -27 126 0 149 16 421 289 209 209 233 237 252 289 58 157 -4 315 -153 390 -57 28 -131 39 -192 27z"/> <path d="M4445 4026 c-95 -44 -150 -107 -179 -206 -13 -44 -16 -113 -16 -396 0 -322 1 -346 20 -395 44 -110 115 -174 227 -205 59 -16 66 -16 128 1 129 35 209 118 240 250 14 59 16 121 13 400 -3 320 -4 331 -26 380 -58 125 -161 195 -288 195 -51 0 -82 -6 -119 -24z"/> <path d="M5810 4044 c-165 -63 -240 -157 -240 -304 0 -127 15 -149 283 -416 149 -149 248 -240 277 -255 36 -18 61 -23 130 -23 75 0 91 3 137 28 62 34 102 75 138 139 23 43 27 59 26 141 0 86 -2 97 -30 145 -18 30 -124 145 -253 275 -247 248 -271 265 -388 272 -36 2 -72 1 -80 -2z"/> </g> </svg> 